<?xml version="1.0" encoding="UTF-8"?>
<svg id="_レイヤー_1" data-name="レイヤー 1" xmlns="http://www.w3.org/2000/svg" viewBox="0 0 1024 1024">
  <path d="M253.04,650.3c-8.11,13.41-23.24,19.11-38.62,17.31-9.86-1.15-18.8-6.58-24.79-14.48-.45-.6-.66-2.86-1.99-2.86l-112.64-.04c-3.98,0-7.71.06-10.84-1.96-5.3-3.43-9.31-8.67-9.3-15.52l.2-171.52c.01-11.64,12.09-18.81,22.75-17.3l.56-14.71c.09-2.26,1.49-3.27,3.34-3.96l10.27-3.82c13.43-3.49,26.87-4.92,40.79-4.2,30.55,2.14,67.1,13.53,87.35,38.35,7.16-8.56,15.43-15.07,25.35-20.33,20.47-10.86,42.88-16.52,66.06-17.98,15.65-.94,36.16,1.39,49.59,8.86,1.03.57,1.76,1.71,1.78,2.96l.21,14.81c11.64-1.56,21.5,5.37,23.17,16.7l-.27,174.06c-.01,7.59-7.85,15.26-15.32,15.28l-117.67.35ZM185.53,618.04c11.88,5.16,21.78,11.45,31.31,20.52l.02-176.58c-5.81-10.42-19.04-19.14-29.69-24.34-26.48-12.94-56.16-17.54-85.21-12.4-6.31,1.11-11.92,2.61-17.52,5.62v184.45c32.33-14.44,69.22-9.85,101.09,2.74ZM325.77,465.5l11.4,9.57.05-50.3c-9.57-1.57-18.83-1.91-28.6-1.2l.08,51.8,11.73-9.88c1.55-1.37,3.77-1.32,5.34.02ZM357.01,430.55c-5.07-2.26-8.9-3.75-13.47-4.45l-.02,53.07c0,1.85-.51,3.29-1.73,4.04-1.12.68-3.24,1.07-4.47.06l-14.38-11.78-14.47,11.98c-1.23,1.02-3.65.26-4.54-.41-1.09-.83-1.34-2.2-1.35-3.9l-.1-55.08c-26.15,2.99-55.16,12.67-73.67,30.64-1.76,2.45-5.02,4.54-5.55,7.93l-.07,175.95c8.67-7.75,17.45-13.95,27.95-18.63,20.49-9.12,42.4-13.74,64.9-13.65,14.39.65,27.92,2.93,40.97,9.22v-185ZM363.34,450.36l-.06,170.09c-.55,1.8-1.78,2.36-2.79,2.53-1.52.26-2.36-.3-3.67-.93-32.55-15.65-74.75-10.06-106.81,5.43-8.75,4.23-16.47,9.61-22.94,16.48-2.21,2.34-3.78,3.78-6.85,3.75s-4.66-1.44-6.82-3.75c-6.83-7.32-15.17-12.71-24.19-17.21-30.07-15.03-76.3-20.37-106.19-3.82-1.18.65-2.8.11-3.51-.42-.83-.61-1.43-1.58-1.44-3.14l-.03-169.53c-7.88-.77-14.48,2.84-16.66,10.18l-.03,172.08c0,5.87,4.01,11.55,10.3,11.56l117.36.14c1.7,0,3.12.7,3.79,2.11,7.67,16.41,31.6,21,47.5,9.41,8.61-6.27,6.38-11.56,12.43-11.57l116.8-.07c5.22,0,10.38-4.73,10.38-10.26l-.1-172.21c0-8.25-9.81-12.88-16.45-10.85Z" fill="#2c3447"/>
  <path d="M843.49,489.27l-5.79,29.86-12.09,53.26c-.92,4.05-5.7,6.46-8.81,6.9-4.33.62-7.8-1.67-10.67-4.97l-17.82-56.34-16.31,52.21c-1.54,4.93-4.91,8.89-10.04,9.17-4.58.25-10.1-2.53-11.2-7.29l-3.45-14.84-13.99-64.83c-1.1-5.1.91-9.9,5.72-11.45,4.51-1.45,9.33,1.12,10.87,6.11l12.01,56.7,17.12-53.94c1.37-4.31,4.45-7.07,8.51-7.4s8.13,1.97,9.48,6.29l17.39,55.25,4.17-18.8,8.3-38.35c.93-4.3,5.43-6.57,9.24-6.11,3.47.41,8.24,4,7.35,8.57Z" fill="#2c3447"/>
  <path d="M429.88,564.02c-20.27-21.79-18.46-56.69,4.6-76.74,9.6-8.35,22.36-12.66,35.03-11.84,27.49,1.79,47.78,24.36,48.12,51.66.16,13.14-4.25,25.83-12.87,35.65-19.86,22.6-54.1,23.61-74.87,1.28ZM488.66,553.8c16.51-14.64,15.09-40.79-2.23-53.78-14.45-10.84-34.16-7.99-45.34,5.97-10.19,12.73-10.57,30.23-.57,43.23,11.6,15.09,33.49,17.58,48.14,4.58Z" fill="#2c3447"/>
  <path d="M626.15,572.44l-.48-34.03c-.09-6.66-5.35-10.9-11.37-11.12-6.01-.22-11.81,4.39-11.9,11.06l-.47,33.62c-.06,4.59-4.85,7.54-8.87,7.38-4.25-.17-8.19-3.72-8.2-8.8l-.15-84.61c0-4.95,3.43-8.98,7.8-9.35,4.09-.34,9.36,2.57,9.43,7.34l.46,30.6c8.45-5.65,18.33-5.5,26.65-.77,9.07,5.15,13.7,14.77,14.24,25.19l-.14,32.01c-.02,4.42-3.76,7.79-7.54,8.34-3.96.58-9.39-2-9.46-6.85Z" fill="#2c3447"/>
  <path d="M902.21,528.33c-.12.6-.03.83.21.98.34.21,1.04-.11,1.12-.39.43-1.51,1.65-1.87,2.67-2.82l8.31-7.77,7.43-6.48c3.3-2.88,8.77-1.51,11.43,1.74,2.45,2.98,2.87,8.26-.37,11.24l-17.41,16,22.12,24.25c3.26,3.57,2.15,9.42-1.21,12.22-3.79,3.17-9.01,2.61-12.5-1.16l-12.84-13.87-8.28-9c-.61-.09-1,.59-.73,1.17l-.15,17.62c-.04,4.52-4.93,7.61-8.95,7.29-4.32-.34-7.96-3.8-7.95-8.7l.04-86.1c0-4.89,4.31-7.87,8.5-7.84,4.47.04,8.53,3.59,8.53,8.47l.03,43.14Z" fill="#2c3447"/>
  <path d="M559.49,578.61c-10.28,3.34-21.58,1.34-29.54-4.99-4.34-3.45-4.88-8.97-1.98-12.61,3.39-4.25,8.77-3.99,12.8-.49,3.33,2.9,8.22,4.18,12.33,2.89,2.61-.82,4.02-2.8,3.95-5.04-.22-6.95-14.72-5.7-23.6-13.88-7.58-6.99-8.48-19.24-1.16-27.28,9.13-10.02,26.18-9.43,36.42-.92,3.7,3.07,3.57,8.23.92,11.46-2.83,3.45-7.67,3.45-11.44.54-2.89-2.23-7.12-2.76-10.65-2.1-2.13.4-3.45,2.35-3.43,4.09s1.3,3.65,3.21,4.33l13.32,4.74c4.64,1.65,8.73,5.02,11.13,9.56,5.99,11.38.44,25.57-12.27,29.7Z" fill="#2c3447"/>
  <path d="M871.26,571.01c0,5.32-4.63,8.47-8.9,8.38s-8.28-3.63-8.28-8.75l-.02-48.63c0-4.91,4.06-8.6,8.29-8.76s8.91,3.2,8.91,8.09v49.67Z" fill="#2c3447"/>
  <path d="M967.38,570.23c0,5.56-4.38,9.29-8.84,9.13-5.23-.18-8.69-4.12-8.69-9.29v-47.47c.02-5.2,3.46-9.08,8.73-9.36,4.48-.24,8.75,3.79,8.76,9.04l.04,47.95Z" fill="#2c3447"/>
  <path d="M674.04,570.81c0,5.01-4.46,8.31-8.21,8.54-4.6.29-9-2.91-9-7.97v-50.09c0-4.72,4.29-7.99,8.4-8.08s8.74,3.44,8.75,8.48l.06,49.12Z" fill="#2c3447"/>
  <path d="M221.43,415.53c-3.39,4.02-2.18-10.36-9.84-18.27-8.28-8.56-19.63-6.4-20.16-9.32-.59-3.26,12.5-1,20.75-11.38,7.13-8.98,5.06-20.3,8.05-20.5,3.22-.21.76,11.38,8.32,20.93,7.09,8.95,18.95,7.85,20.12,10.36.37.79-.96,2.28-2.11,2.35-13.27.76-23.27,10.23-24.22,23.57-.05.73-.56,1.84-.91,2.26Z" fill="#ebc1cd"/>
  <path d="M719.38,527.89c4.78-.01,7.4,4.49,7.18,8.39s-3.14,7.59-7.68,7.61l-23.31.12c-4.52.02-7.76-3.24-8.37-7.45-.55-3.79,2.4-8.6,7.04-8.61l25.14-.06Z" fill="#2c3447"/>
  <path d="M871.62,489.6c5.37,5.02-1.41,11.86-8.57,16.44-4.63-2.06-8.83-5.53-10.56-10.43-1.1-3.13.46-6.68,3.5-7.82,3.35-1.26,5.48,2.55,6.99,2.54,1.33,0,2.12-2.42,5.33-2.59,1.34-.07,2.21.83,3.31,1.86Z" fill="#ebc1cd"/>
  <path d="M674.04,489.03c5.56,5.57-1.38,13.32-8.98,16.92-6.62-4.58-13.28-9.57-9.29-15.82.91-1.43,2.15-2.29,3.49-2.46,3.13-.38,4.48,2.76,5.98,2.9,1.97.19,4.74-5.61,8.8-1.54Z" fill="#ebc1cd"/>
  <path d="M967.92,489.85c2.54,3.87.8,8.05-2.53,10.67-2.13,1.68-4.13,5.36-7.09,5.37-5.75-3.09-11.78-8.56-10.14-14.07.63-2.12,1.91-3.32,3.3-3.84,3.85-1.42,5.36,2.32,7.07,2.47s2.3-2.83,5.33-2.8c1.24.01,3.06.69,4.06,2.21Z" fill="#ebc1cd"/>
  <path d="M170.09,401.67c-1.09.76-.48,5.83-3.29,5.56-2.64-.25-1.6-3.92-2.81-5.45-.98-1.23-5.29-.23-5.29-3.12,0-2.59,3.69-2.2,4.87-2.88,1.66-.94.64-5.49,3.22-5.61,2.88-.14,2.23,4.94,3.11,5.63,1.01.8,5.49.42,5.51,2.86.01,2.28-3.81,1.95-5.32,3Z" fill="#ebc1cd"/>
  <path d="M275.5,401.52c-1.17.68-.45,5.45-3.17,5.63-3.45.23-.79-5.78-5.75-6.15-1.25-.09-2.49-1.31-2.46-2.33.08-2.7,3.96-2.03,5.06-2.91,1.28-1.03.33-5.19,2.52-5.62,3.19-.62,2.23,4.12,3.37,5.44.9,1.04,5.47.34,5.45,3.1-.02,2.04-3.98,2.23-5.02,2.84Z" fill="#ebc1cd"/>
  <path d="M903.54,528.92c-.08.28-.78.6-1.12.39-.24-.15-.34-.38-.21-.98l1.33.59Z" fill="#2c3447"/>
  <path d="M902.17,554.44c-.27-.58.12-1.26.73-1.17-.17.61-.35,1.12-.73,1.17Z" fill="#2c3447"/>
  <path d="M357.01,430.55v185c-13.05-6.29-26.58-8.56-40.97-9.22-22.5-.09-44.41,4.53-64.9,13.65-10.51,4.67-19.29,10.88-27.95,18.63l.07-175.95c.53-3.4,3.79-5.49,5.55-7.93,18.51-17.98,47.52-27.66,73.67-30.64l.1,55.08c0,1.7.25,3.07,1.35,3.9.89.67,3.31,1.44,4.54.41l14.47-11.98,14.38,11.78c1.23,1.01,3.35.62,4.47-.06,1.23-.75,1.73-2.19,1.73-4.04l.02-53.07c4.57.71,8.4,2.2,13.47,4.45ZM289.49,527.77c2.17-.39,3.32-1.88,3.32-3.83v-42.71c-.22-2-1.49-3.3-3.48-3.48l-40.73.02c-2.06,0-3.79,1.4-3.79,3.55v43.16c0,1.84,1.55,3.09,3.26,3.3h41.42ZM330.28,550.56c2.33,0,3.08-2.28,2.91-3.49-.18-1.33-1.4-2.71-3.41-2.71l-81.78.02c-2.12,0-3.26,1.54-3.21,3.27.04,1.3,1.24,2.95,3.25,2.95l82.24-.04ZM329.93,570.43c2.19,0,3.45-1.59,3.3-3.32-.13-1.45-1.21-2.96-3.2-2.96l-82.57-.02c-1.89.56-2.82,1.99-2.7,3.53s1.43,2.77,3.37,2.77h81.79ZM305.35,589.63c1.93,0,2.96-1.77,2.94-3.18s-1-2.94-2.96-2.94h-57.32c-2,0-3.23,1.5-3.25,2.94-.02,1.69,1.15,3.25,3.2,3.24l57.39-.07Z" fill="#fefefe"/>
  <path d="M185.53,618.04c-31.88-12.59-68.77-17.17-101.09-2.74v-184.45c5.59-3.01,11.21-4.51,17.51-5.62,29.05-5.13,58.72-.53,85.21,12.4,10.65,5.21,23.88,13.93,29.69,24.34l-.02,176.58c-9.53-9.07-19.43-15.36-31.31-20.52ZM130.93,491.44c.6-9.15,7.35-14.97,16.02-15.71,1.29-.11,2.25-1.29,2.21-2.24-.04-1.14-1.34-1.82-2.55-1.94-16.48-1.7-15.08-17.9-16.9-19.45-.71-.61-1.89-.41-2.47.23-1.49,1.62-.19,17.6-17.13,19.23-1.3.12-2.49,1.43-2.11,2.62.22.67,1.28,1.51,2.38,1.6,8.9.76,15.43,7.05,16.16,16,.11,1.35.94,2.4,2.13,2.4,1.12,0,2.14-1.04,2.25-2.75ZM153.88,578.5c15.37-10.99,32.13-23.89,39.05-41.27,3.3-8.3,3.78-17.16.1-25.13s-11.23-13.7-19.2-14.77c-9.25-1.25-17.62,2.43-23.55,9.83-5.2-6.61-12.63-10.33-20.86-10.08-7.7.23-15.21,3.96-19.79,10.83-5.08,7.61-6.03,16.73-3.39,25.55,5.69,19.02,24.37,33.59,40.34,45.04,2.38,1.71,4.69,1.87,7.31,0ZM202.09,573.02c1.06-.21,1.68-1.14,1.58-1.89-.34-2.66-7.36-.93-8.13-8.19-.13-1.22-.99-2.29-2.04-2.24-2.83.16-.87,7.5-8.31,8.75-1.11.19-1.73,1.38-1.58,2.26.42,2.43,7.57.57,8.3,8.28.11,1.19,1.26,1.86,2.24,1.61,2.17-.56.32-7.05,7.94-8.58Z" fill="#fefefe"/>
  <path d="M363.34,450.36c6.64-2.03,16.45,2.6,16.45,10.85l.1,172.21c0,5.53-5.15,10.25-10.38,10.26l-116.8.07c-6.05,0-3.82,5.29-12.43,11.57-15.9,11.59-39.83,7-47.5-9.41-.66-1.42-2.08-2.11-3.79-2.11l-117.36-.14c-6.3,0-10.3-5.7-10.3-11.56l.03-172.08c2.19-7.34,8.79-10.95,16.66-10.18l.03,169.53c0,1.56.61,2.53,1.44,3.14.71.53,2.33,1.07,3.51.42,29.9-16.55,76.12-11.21,106.19,3.82,9.02,4.51,17.36,9.89,24.19,17.21,2.16,2.31,3.79,3.73,6.82,3.75s4.65-1.41,6.85-3.75c6.48-6.87,14.2-12.25,22.94-16.48,32.07-15.49,74.26-21.09,106.81-5.43,1.31.63,2.15,1.18,3.67.93,1.01-.17,2.24-.73,2.79-2.53l.06-170.09Z" fill="#ebc1cd"/>
  <path d="M325.77,465.5c-1.57-1.34-3.79-1.39-5.34-.02l-11.73,9.88-.08-51.8c9.77-.71,19.03-.37,28.6,1.2l-.05,50.3-11.4-9.57Z" fill="#ebc1cd"/>
  <path d="M466.68,546.62c3.26-1.1,5.05-3.79,7.35-5.61,4.69-3.7,9-7.69,10.85-13.35,1.44-4.41,1.14-8.51-2.3-11.49-2.87-2.49-7.33-4.38-10.68-1.38l-5.38,4.81c-2.47-4.31-6.76-6.73-11.49-5.69-4.46.98-6.95,5.18-7.09,9.58-.18,5.35,3.11,9.24,6.89,12.73s6.96,7.87,11.84,10.39Z" fill="#fefefe"/>
  <path d="M289.49,527.77h-41.42c-1.71-.2-3.27-1.45-3.27-3.29v-43.16c0-2.14,1.74-3.55,3.8-3.55l40.73-.02c1.99.18,3.26,1.48,3.47,3.48v42.71c0,1.94-1.15,3.44-3.31,3.83Z" fill="#ebc1cd"/>
  <path d="M329.93,570.43h-81.79c-1.94,0-3.25-1.28-3.37-2.77s.8-2.98,2.7-3.53l82.57.02c1.98,0,3.07,1.51,3.2,2.96.15,1.73-1.11,3.32-3.3,3.32Z" fill="#ebc1cd"/>
  <path d="M330.28,550.56l-82.24.04c-2.01,0-3.21-1.65-3.25-2.95-.05-1.73,1.09-3.27,3.21-3.27l81.78-.02c2.01,0,3.23,1.38,3.41,2.71.17,1.21-.58,3.49-2.91,3.49Z" fill="#ebc1cd"/>
  <path d="M305.35,589.63l-57.39.07c-2.05,0-3.22-1.55-3.2-3.24.02-1.44,1.25-2.94,3.25-2.94h57.32c1.96,0,2.94,1.54,2.96,2.93s-1.01,3.18-2.94,3.18Z" fill="#ebc1cd"/>
  <path d="M153.88,578.5c-2.62,1.87-4.93,1.71-7.31,0-15.98-11.44-34.66-26.02-40.34-45.04-2.64-8.82-1.69-17.94,3.39-25.55,4.58-6.87,12.1-10.6,19.79-10.83,8.24-.25,15.67,3.47,20.86,10.08,5.92-7.4,14.29-11.08,23.55-9.83,7.98,1.07,15.43,6.6,19.2,14.77s3.2,16.83-.1,25.13c-6.92,17.38-23.68,30.28-39.05,41.27ZM187.49,514.98c-3.01-7.05-9.49-11.36-16.77-11.51-7.31-.15-14.41,3.77-17.26,10.83-.73,1.82-1.52,3.04-3.39,2.97s-2.34-1.51-3.12-3.3c-3.59-8.22-12.52-11.93-21.27-10-8,1.76-13.81,8.84-14.53,17.74-1.68,20.78,22.2,40.22,39.12,51.52,18.68-12.31,46.74-35.97,37.22-58.25Z" fill="#2c3447"/>
  <path d="M130.93,491.44c-.11,1.7-1.13,2.74-2.25,2.75-1.19,0-2.02-1.05-2.13-2.4-.73-8.96-7.26-15.24-16.16-16-1.11-.09-2.16-.93-2.38-1.6-.38-1.19.81-2.49,2.11-2.62,16.94-1.63,15.64-17.6,17.13-19.23.58-.64,1.75-.84,2.47-.23,1.82,1.55.42,17.75,16.9,19.45,1.21.13,2.51.8,2.55,1.94.04.95-.93,2.13-2.21,2.24-8.67.74-15.42,6.56-16.02,15.71Z" fill="#ebc1cd"/>
  <path d="M202.09,573.02c-7.61,1.53-5.76,8.02-7.94,8.58-.99.25-2.13-.41-2.24-1.61-.73-7.7-7.87-5.85-8.3-8.28-.15-.88.47-2.07,1.58-2.26,7.44-1.25,5.48-8.59,8.31-8.75,1.05-.06,1.91,1.02,2.04,2.24.77,7.26,7.78,5.53,8.13,8.19.1.75-.52,1.68-1.58,1.89Z" fill="#ebc1cd"/>
  <path d="M466.68,546.62c-4.89-2.52-8-6.84-11.84-10.39s-7.07-7.38-6.89-12.73c.14-4.4,2.63-8.6,7.09-9.58,4.73-1.04,9.02,1.37,11.49,5.69l5.38-4.81c3.35-3,7.81-1.11,10.68,1.38,3.45,2.99,3.74,7.08,2.3,11.49-1.85,5.66-6.16,9.65-10.85,13.35-2.3,1.81-4.09,4.5-7.35,5.61Z" fill="#ebc1cd"/>
  <path d="M187.49,514.98c9.51,22.28-18.54,45.95-37.22,58.25-16.91-11.3-40.8-30.74-39.12-51.52.72-8.9,6.53-15.97,14.53-17.74,8.75-1.93,17.69,1.78,21.27,10,.78,1.79,1.2,3.22,3.12,3.3s2.65-1.15,3.39-2.97c2.85-7.06,9.95-10.98,17.26-10.83,7.28.15,13.76,4.46,16.77,11.51Z" fill="#ebc1cd"/>
</svg>