<?xml version="1.0" encoding="utf-8"?>
<!-- Generator: Adobe Illustrator 30.5.1, SVG Export Plug-In . SVG Version: 9.03 Build 0)  -->
<!DOCTYPE svg PUBLIC "-//W3C//DTD SVG 1.1//EN" "http://www.w3.org/Graphics/SVG/1.1/DTD/svg11.dtd" [
	<!ENTITY st0 "fill:#2C3447;">
	<!ENTITY st1 "fill:#EBC1CD;">
	<!ENTITY st2 "fill:#FEFEFE;">
]>
<svg version="1.1" id="レイヤー_1" xmlns="http://www.w3.org/2000/svg" xmlns:xlink="http://www.w3.org/1999/xlink" x="0px"
	 y="0px" viewBox="0 0 914.3 311.9" style="enable-background:new 0 0 914.3 311.9;" xml:space="preserve">
<g>
	<path style="&st0;" d="M198.2,294.2c-8.1,13.4-23.2,19.1-38.6,17.3c-9.9-1.2-18.8-6.6-24.8-14.5c-0.5-0.6-0.7-2.9-2-2.9l-112.6,0
		c-4,0-7.7,0.1-10.8-2C4,288.8,0,283.5,0,276.7l0.2-171.5c0-11.6,12.1-18.8,22.7-17.3l0.6-14.7c0.1-2.3,1.5-3.3,3.3-4l10.3-3.8
		c13.4-3.5,26.9-4.9,40.8-4.2c30.5,2.1,67.1,13.5,87.4,38.3c7.2-8.6,15.4-15.1,25.4-20.3c20.5-10.9,42.9-16.5,66.1-18
		c15.7-0.9,36.2,1.4,49.6,8.9c1,0.6,1.8,1.7,1.8,3l0.2,14.8c11.6-1.6,21.5,5.4,23.2,16.7l-0.3,174.1c0,7.6-7.9,15.3-15.3,15.3
		L198.2,294.2z M130.7,262c11.9,5.2,21.8,11.4,31.3,20.5l0-176.6c-5.8-10.4-19-19.1-29.7-24.3C105.8,68.6,76.1,64,47.1,69.2
		c-6.3,1.1-11.9,2.6-17.5,5.6l0,184.5C61.9,244.8,98.8,249.4,130.7,262z M270.9,109.4l11.4,9.6l0.1-50.3c-9.6-1.6-18.8-1.9-28.6-1.2
		l0.1,51.8l11.7-9.9C267.1,108.1,269.3,108.1,270.9,109.4z M302.1,74.5c-5.1-2.3-8.9-3.7-13.5-4.5l0,53.1c0,1.9-0.5,3.3-1.7,4
		c-1.1,0.7-3.2,1.1-4.5,0.1l-14.4-11.8l-14.5,12c-1.2,1-3.6,0.3-4.5-0.4c-1.1-0.8-1.3-2.2-1.3-3.9L247.6,68
		c-26.1,3-55.2,12.7-73.7,30.6c-1.8,2.4-5,4.5-5.6,7.9l-0.1,175.9c8.7-7.7,17.4-14,28-18.6c20.5-9.1,42.4-13.7,64.9-13.6
		c14.4,0.7,27.9,2.9,41,9.2L302.1,74.5z M308.5,94.3l-0.1,170.1c-0.6,1.8-1.8,2.4-2.8,2.5c-1.5,0.3-2.4-0.3-3.7-0.9
		c-32.6-15.7-74.7-10.1-106.8,5.4c-8.7,4.2-16.5,9.6-22.9,16.5c-2.2,2.3-3.8,3.8-6.9,3.8c-3,0-4.7-1.4-6.8-3.8
		c-6.8-7.3-15.2-12.7-24.2-17.2c-30.1-15-76.3-20.4-106.2-3.8c-1.2,0.7-2.8,0.1-3.5-0.4c-0.8-0.6-1.4-1.6-1.4-3.1l0-169.5
		C15.3,93,8.7,96.6,6.5,104l0,172.1c0,5.9,4,11.6,10.3,11.6l117.4,0.1c1.7,0,3.1,0.7,3.8,2.1c7.7,16.4,31.6,21,47.5,9.4
		c8.6-6.3,6.4-11.6,12.4-11.6l116.8-0.1c5.2,0,10.4-4.7,10.4-10.3l-0.1-172.2C324.9,96.9,315.1,92.3,308.5,94.3z"/>
	<path style="&st0;" d="M788.6,133.2l-5.8,29.9l-12.1,53.3c-0.9,4.1-5.7,6.5-8.8,6.9c-4.3,0.6-7.8-1.7-10.7-5l-17.8-56.3l-16.3,52.2
		c-1.5,4.9-4.9,8.9-10,9.2c-4.6,0.3-10.1-2.5-11.2-7.3l-3.4-14.8l-14-64.8c-1.1-5.1,0.9-9.9,5.7-11.4c4.5-1.5,9.3,1.1,10.9,6.1
		l12,56.7l17.1-53.9c1.4-4.3,4.5-7.1,8.5-7.4c4.1-0.3,8.1,2,9.5,6.3l17.4,55.2l4.2-18.8l8.3-38.3c0.9-4.3,5.4-6.6,9.2-6.1
		C784.7,125,789.5,128.6,788.6,133.2z"/>
	<path style="&st0;" d="M375,208c-20.3-21.8-18.5-56.7,4.6-76.7c9.6-8.3,22.4-12.7,35-11.8c27.5,1.8,47.8,24.4,48.1,51.7
		c0.2,13.1-4.2,25.8-12.9,35.6C430,229.3,395.8,230.3,375,208z M433.8,197.7c16.5-14.6,15.1-40.8-2.2-53.8c-14.5-10.8-34.2-8-45.3,6
		c-10.2,12.7-10.6,30.2-0.6,43.2C397.3,208.2,419.1,210.7,433.8,197.7z"/>
	<path style="&st0;" d="M571.3,216.4l-0.5-34c-0.1-6.7-5.4-10.9-11.4-11.1c-6-0.2-11.8,4.4-11.9,11.1l-0.5,33.6
		c-0.1,4.6-4.9,7.5-8.9,7.4c-4.2-0.2-8.2-3.7-8.2-8.8l-0.1-84.6c0-4.9,3.4-9,7.8-9.4c4.1-0.3,9.4,2.6,9.4,7.3l0.5,30.6
		c8.4-5.6,18.3-5.5,26.7-0.8c9.1,5.2,13.7,14.8,14.2,25.2l-0.1,32c0,4.4-3.8,7.8-7.5,8.3C576.8,223.8,571.4,221.2,571.3,216.4z"/>
	<path style="&st0;" d="M847.3,172.3c-0.1,0.6,0,0.8,0.2,1c0.3,0.2,1-0.1,1.1-0.4c0.4-1.5,1.6-1.9,2.7-2.8l8.3-7.8l7.4-6.5
		c3.3-2.9,8.8-1.5,11.4,1.7c2.5,3,2.9,8.3-0.4,11.2l-17.4,16l22.1,24.3c3.3,3.6,2.1,9.4-1.2,12.2c-3.8,3.2-9,2.6-12.5-1.2
		l-12.8-13.9l-8.3-9c-0.6-0.1-1,0.6-0.7,1.2l-0.2,17.6c0,4.5-4.9,7.6-9,7.3c-4.3-0.3-8-3.8-8-8.7l0-86.1c0-4.9,4.3-7.9,8.5-7.8
		c4.5,0,8.5,3.6,8.5,8.5L847.3,172.3z"/>
	<path style="&st0;" d="M504.6,222.5c-10.3,3.3-21.6,1.3-29.5-5c-4.3-3.5-4.9-9-2-12.6c3.4-4.3,8.8-4,12.8-0.5
		c3.3,2.9,8.2,4.2,12.3,2.9c2.6-0.8,4-2.8,4-5c-0.2-6.9-14.7-5.7-23.6-13.9c-7.6-7-8.5-19.2-1.2-27.3c9.1-10,26.2-9.4,36.4-0.9
		c3.7,3.1,3.6,8.2,0.9,11.5c-2.8,3.4-7.7,3.5-11.4,0.5c-2.9-2.2-7.1-2.8-10.7-2.1c-2.1,0.4-3.4,2.4-3.4,4.1c0,1.7,1.3,3.7,3.2,4.3
		l13.3,4.7c4.6,1.7,8.7,5,11.1,9.6C522.9,204.2,517.3,218.4,504.6,222.5z"/>
	<path style="&st0;" d="M816.4,214.9c0,5.3-4.6,8.5-8.9,8.4c-4.4-0.1-8.3-3.6-8.3-8.7l0-48.6c0-4.9,4.1-8.6,8.3-8.8
		c4.3-0.2,8.9,3.2,8.9,8.1L816.4,214.9z"/>
	<path style="&st0;" d="M912.5,214.2c0,5.6-4.4,9.3-8.8,9.1c-5.2-0.2-8.7-4.1-8.7-9.3l0-47.5c0-5.2,3.4-9.1,8.7-9.4
		c4.5-0.2,8.8,3.8,8.8,9L912.5,214.2z"/>
	<path style="&st0;" d="M619.2,214.7c0,5-4.5,8.3-8.2,8.5c-4.6,0.3-9-2.9-9-8l0-50.1c0-4.7,4.3-8,8.4-8.1c4.1-0.1,8.7,3.4,8.7,8.5
		L619.2,214.7z"/>
	<path style="&st1;" d="M166.6,59.5c-3.4,4-2.2-10.4-9.8-18.3c-8.3-8.6-19.6-6.4-20.2-9.3c-0.6-3.3,12.5-1,20.7-11.4
		c7.1-9,5.1-20.3,8.1-20.5c3.2-0.2,0.8,11.4,8.3,20.9c7.1,9,19,7.8,20.1,10.4c0.4,0.8-1,2.3-2.1,2.4c-13.3,0.8-23.3,10.2-24.2,23.6
		C167.4,57.9,166.9,59.1,166.6,59.5z"/>
	<path style="&st0;" d="M664.5,171.8c4.8,0,7.4,4.5,7.2,8.4c-0.2,3.9-3.1,7.6-7.7,7.6l-23.3,0.1c-4.5,0-7.8-3.2-8.4-7.4
		c-0.6-3.8,2.4-8.6,7-8.6L664.5,171.8z"/>
	<path style="&st1;" d="M816.8,133.5c5.4,5-1.4,11.9-8.6,16.4c-4.6-2.1-8.8-5.5-10.6-10.4c-1.1-3.1,0.5-6.7,3.5-7.8
		c3.4-1.3,5.5,2.5,7,2.5c1.3,0,2.1-2.4,5.3-2.6C814.8,131.6,815.6,132.5,816.8,133.5z"/>
	<path style="&st1;" d="M619.2,133c5.6,5.6-1.4,13.3-9,16.9c-6.6-4.6-13.3-9.6-9.3-15.8c0.9-1.4,2.2-2.3,3.5-2.5
		c3.1-0.4,4.5,2.8,6,2.9C612.3,134.7,615.1,128.9,619.2,133z"/>
	<path style="&st1;" d="M913.1,133.8c2.5,3.9,0.8,8.1-2.5,10.7c-2.1,1.7-4.1,5.4-7.1,5.4c-5.7-3.1-11.8-8.6-10.1-14.1
		c0.6-2.1,1.9-3.3,3.3-3.8c3.9-1.4,5.4,2.3,7.1,2.5c1.7,0.1,2.3-2.8,5.3-2.8C910.2,131.6,912.1,132.3,913.1,133.8z"/>
	<path style="&st1;" d="M115.2,45.6c-1.1,0.8-0.5,5.8-3.3,5.6c-2.6-0.2-1.6-3.9-2.8-5.4c-1-1.2-5.3-0.2-5.3-3.1
		c0-2.6,3.7-2.2,4.9-2.9c1.7-0.9,0.6-5.5,3.2-5.6c2.9-0.1,2.2,4.9,3.1,5.6c1,0.8,5.5,0.4,5.5,2.9C120.6,44.9,116.7,44.6,115.2,45.6z
		"/>
	<path style="&st1;" d="M220.6,45.5c-1.2,0.7-0.5,5.4-3.2,5.6c-3.4,0.2-0.8-5.8-5.8-6.1c-1.3-0.1-2.5-1.3-2.5-2.3
		c0.1-2.7,4-2,5.1-2.9c1.3-1,0.3-5.2,2.5-5.6c3.2-0.6,2.2,4.1,3.4,5.4c0.9,1,5.5,0.3,5.4,3.1C225.6,44.7,221.7,44.8,220.6,45.5z"/>
	<path style="&st0;" d="M848.7,172.9c-0.1,0.3-0.8,0.6-1.1,0.4c-0.2-0.1-0.3-0.4-0.2-1L848.7,172.9z"/>
	<path style="&st0;" d="M847.3,198.4c-0.3-0.6,0.1-1.3,0.7-1.2C847.9,197.8,847.7,198.3,847.3,198.4z"/>
	<path style="&st2;" d="M302.1,74.5l0,185c-13.1-6.3-26.6-8.6-41-9.2c-22.5-0.1-44.4,4.5-64.9,13.6c-10.5,4.7-19.3,10.9-28,18.6
		l0.1-175.9c0.5-3.4,3.8-5.5,5.6-7.9c18.5-18,47.5-27.7,73.7-30.6l0.1,55.1c0,1.7,0.3,3.1,1.3,3.9c0.9,0.7,3.3,1.4,4.5,0.4l14.5-12
		l14.4,11.8c1.2,1,3.4,0.6,4.5-0.1c1.2-0.8,1.7-2.2,1.7-4l0-53.1C293.2,70.7,297.1,72.2,302.1,74.5z M234.6,171.7
		c2.2-0.4,3.3-1.9,3.3-3.8l0-42.7c-0.2-2-1.5-3.3-3.5-3.5l-40.7,0c-2.1,0-3.8,1.4-3.8,3.5l0,43.2c0,1.8,1.6,3.1,3.3,3.3L234.6,171.7
		z M275.4,194.5c2.3,0,3.1-2.3,2.9-3.5c-0.2-1.3-1.4-2.7-3.4-2.7l-81.8,0c-2.1,0-3.3,1.5-3.2,3.3c0,1.3,1.2,3,3.2,3L275.4,194.5z
		 M275.1,214.4c2.2,0,3.4-1.6,3.3-3.3c-0.1-1.5-1.2-3-3.2-3l-82.6,0c-1.9,0.6-2.8,2-2.7,3.5c0.1,1.5,1.4,2.8,3.4,2.8L275.1,214.4z
		 M250.5,233.6c1.9,0,3-1.8,2.9-3.2c0-1.4-1-2.9-3-2.9l-57.3,0c-2,0-3.2,1.5-3.3,2.9c0,1.7,1.2,3.2,3.2,3.2L250.5,233.6z"/>
	<path style="&st2;" d="M130.7,262c-31.9-12.6-68.8-17.2-101.1-2.7l0-184.5c5.6-3,11.2-4.5,17.5-5.6c29-5.1,58.7-0.5,85.2,12.4
		c10.7,5.2,23.9,13.9,29.7,24.3l0,176.6C152.4,273.4,142.5,267.1,130.7,262z M76.1,135.4c0.6-9.1,7.4-15,16-15.7
		c1.3-0.1,2.2-1.3,2.2-2.2c0-1.1-1.3-1.8-2.5-1.9C75.3,113.8,76.7,97.6,74.9,96c-0.7-0.6-1.9-0.4-2.5,0.2
		c-1.5,1.6-0.2,17.6-17.1,19.2c-1.3,0.1-2.5,1.4-2.1,2.6c0.2,0.7,1.3,1.5,2.4,1.6c8.9,0.8,15.4,7,16.2,16c0.1,1.4,0.9,2.4,2.1,2.4
		C74.9,138.1,76,137.1,76.1,135.4z M99,222.4c15.4-11,32.1-23.9,39-41.3c3.3-8.3,3.8-17.2,0.1-25.1c-3.8-8.2-11.2-13.7-19.2-14.8
		c-9.3-1.2-17.6,2.4-23.5,9.8c-5.2-6.6-12.6-10.3-20.9-10.1c-7.7,0.2-15.2,4-19.8,10.8c-5.1,7.6-6,16.7-3.4,25.6
		c5.7,19,24.4,33.6,40.3,45C94.1,224.1,96.4,224.3,99,222.4z M147.2,217c1.1-0.2,1.7-1.1,1.6-1.9c-0.3-2.7-7.4-0.9-8.1-8.2
		c-0.1-1.2-1-2.3-2-2.2c-2.8,0.2-0.9,7.5-8.3,8.8c-1.1,0.2-1.7,1.4-1.6,2.3c0.4,2.4,7.6,0.6,8.3,8.3c0.1,1.2,1.3,1.9,2.2,1.6
		C141.5,225,139.6,218.5,147.2,217z"/>
	<path style="&st1;" d="M308.5,94.3c6.6-2,16.4,2.6,16.5,10.8l0.1,172.2c0,5.5-5.2,10.3-10.4,10.3l-116.8,0.1
		c-6,0-3.8,5.3-12.4,11.6c-15.9,11.6-39.8,7-47.5-9.4c-0.7-1.4-2.1-2.1-3.8-2.1l-117.4-0.1c-6.3,0-10.3-5.7-10.3-11.6l0-172.1
		c2.2-7.3,8.8-11,16.7-10.2l0,169.5c0,1.6,0.6,2.5,1.4,3.1c0.7,0.5,2.3,1.1,3.5,0.4c29.9-16.5,76.1-11.2,106.2,3.8
		c9,4.5,17.4,9.9,24.2,17.2c2.2,2.3,3.8,3.7,6.8,3.8c3.1,0,4.6-1.4,6.9-3.8c6.5-6.9,14.2-12.3,22.9-16.5
		c32.1-15.5,74.3-21.1,106.8-5.4c1.3,0.6,2.1,1.2,3.7,0.9c1-0.2,2.2-0.7,2.8-2.5L308.5,94.3z"/>
	<path style="&st1;" d="M270.9,109.4c-1.6-1.3-3.8-1.4-5.3,0l-11.7,9.9l-0.1-51.8c9.8-0.7,19-0.4,28.6,1.2l-0.1,50.3L270.9,109.4z"
		/>
	<path style="&st2;" d="M411.8,190.6c3.3-1.1,5-3.8,7.3-5.6c4.7-3.7,9-7.7,10.9-13.4c1.4-4.4,1.1-8.5-2.3-11.5
		c-2.9-2.5-7.3-4.4-10.7-1.4l-5.4,4.8c-2.5-4.3-6.8-6.7-11.5-5.7c-4.5,1-6.9,5.2-7.1,9.6c-0.2,5.4,3.1,9.2,6.9,12.7
		C403.8,183.7,406.9,188,411.8,190.6z"/>
	<path style="&st1;" d="M234.6,171.7l-41.4,0c-1.7-0.2-3.3-1.5-3.3-3.3l0-43.2c0-2.1,1.7-3.5,3.8-3.5l40.7,0c2,0.2,3.3,1.5,3.5,3.5
		l0,42.7C238,169.8,236.8,171.3,234.6,171.7z"/>
	<path style="&st1;" d="M275.1,214.4l-81.8,0c-1.9,0-3.2-1.3-3.4-2.8c-0.1-1.5,0.8-3,2.7-3.5l82.6,0c2,0,3.1,1.5,3.2,3
		C278.5,212.8,277.3,214.4,275.1,214.4z"/>
	<path style="&st1;" d="M275.4,194.5l-82.2,0c-2,0-3.2-1.6-3.2-3c0-1.7,1.1-3.3,3.2-3.3l81.8,0c2,0,3.2,1.4,3.4,2.7
		C278.5,192.2,277.7,194.5,275.4,194.5z"/>
	<path style="&st1;" d="M250.5,233.6l-57.4,0.1c-2.1,0-3.2-1.6-3.2-3.2c0-1.4,1.2-2.9,3.3-2.9l57.3,0c2,0,2.9,1.5,3,2.9
		C253.5,231.8,252.4,233.6,250.5,233.6z"/>
	<path style="&st0;" d="M99,222.4c-2.6,1.9-4.9,1.7-7.3,0c-16-11.4-34.7-26-40.3-45c-2.6-8.8-1.7-17.9,3.4-25.6
		c4.6-6.9,12.1-10.6,19.8-10.8c8.2-0.3,15.7,3.5,20.9,10.1c5.9-7.4,14.3-11.1,23.5-9.8c8,1.1,15.4,6.6,19.2,14.8
		c3.7,8,3.2,16.8-0.1,25.1C131.1,198.5,114.4,211.4,99,222.4z M132.6,158.9c-3-7.1-9.5-11.4-16.8-11.5c-7.3-0.1-14.4,3.8-17.3,10.8
		c-0.7,1.8-1.5,3-3.4,3c-1.9-0.1-2.3-1.5-3.1-3.3c-3.6-8.2-12.5-11.9-21.3-10c-8,1.8-13.8,8.8-14.5,17.7
		c-1.7,20.8,22.2,40.2,39.1,51.5C114.1,204.9,142.1,181.2,132.6,158.9z"/>
	<path style="&st1;" d="M76.1,135.4c-0.1,1.7-1.1,2.7-2.3,2.7c-1.2,0-2-1-2.1-2.4c-0.7-9-7.3-15.2-16.2-16c-1.1-0.1-2.2-0.9-2.4-1.6
		c-0.4-1.2,0.8-2.5,2.1-2.6c16.9-1.6,15.6-17.6,17.1-19.2c0.6-0.6,1.8-0.8,2.5-0.2c1.8,1.6,0.4,17.7,16.9,19.5
		c1.2,0.1,2.5,0.8,2.5,1.9c0,1-0.9,2.1-2.2,2.2C83.4,120.4,76.7,126.2,76.1,135.4z"/>
	<path style="&st1;" d="M147.2,217c-7.6,1.5-5.8,8-7.9,8.6c-1,0.3-2.1-0.4-2.2-1.6c-0.7-7.7-7.9-5.8-8.3-8.3
		c-0.2-0.9,0.5-2.1,1.6-2.3c7.4-1.3,5.5-8.6,8.3-8.8c1.1-0.1,1.9,1,2,2.2c0.8,7.3,7.8,5.5,8.1,8.2
		C148.9,215.8,148.3,216.7,147.2,217z"/>
	<path style="&st1;" d="M411.8,190.6c-4.9-2.5-8-6.8-11.8-10.4c-3.8-3.5-7.1-7.4-6.9-12.7c0.1-4.4,2.6-8.6,7.1-9.6
		c4.7-1,9,1.4,11.5,5.7l5.4-4.8c3.3-3,7.8-1.1,10.7,1.4c3.4,3,3.7,7.1,2.3,11.5c-1.9,5.7-6.2,9.7-10.9,13.4
		C416.9,186.8,415.1,189.5,411.8,190.6z"/>
	<path style="&st1;" d="M132.6,158.9c9.5,22.3-18.5,45.9-37.2,58.3c-16.9-11.3-40.8-30.7-39.1-51.5c0.7-8.9,6.5-16,14.5-17.7
		c8.7-1.9,17.7,1.8,21.3,10c0.8,1.8,1.2,3.2,3.1,3.3c1.9,0.1,2.7-1.2,3.4-3c2.8-7.1,9.9-11,17.3-10.8
		C123.1,147.6,129.6,151.9,132.6,158.9z"/>
</g>
</svg>
